
        <svg xmlns="http://www.w3.org/2000/svg" xmlns:xlink="http://www.w3.org/1999/xlink" version="1.1" width="3178.8849226956268" height="978.0426534321637" viewBox="0 0 3178.8849226956268 978.0426534321637">
			
			<g transform="scale(8.944246134781334) translate(10, 10)">
				<defs id="SvgjsDefs1966"/><g id="SvgjsG1967" featureKey="monogramFeature-0" transform="matrix(1.0499251536047451,0,0,1.0499251536047451,148.94365860131435,-28.449227251120504)" fill="#000"><path d="M29.88 35.94 c1.02 -0.36 2.7 -1.26 3.12 -3.18 c0.48 -2.28 -0.6 -3.84 -3.36 -4.32 c-3.06 -0.54 -9.3 0.54 -15.18 3.3 c-5.04 2.4 -10.32 6.06 -11.28 10.2 c-0.9 4.14 1.14 7.38 7.08 12.9 c1.74 1.62 3.24 3.06 4.5 4.38 c6.54 -2.64 19.08 -6.18 20.52 -6.48 c1.56 -0.36 1.86 0.36 0.24 0.66 c-1.38 0.3 -13.26 3.72 -19.98 6.6 c4.62 4.86 6.18 7.98 5.58 11.82 c-0.72 4.8 -6.66 7.5 -12.84 6.9 c-5.94 -0.54 -8.7 -4.02 -8.16 -7.2 c0.78 -4.2 6.18 -8.04 12.06 -11.1 c0.36 -0.24 0.9 -0.42 1.38 -0.66 c-1.14 -1.2 -2.58 -2.58 -4.14 -4.14 c-6.6 -6.24 -8.88 -9.48 -7.92 -13.92 s4.62 -7.8 12.24 -11.16 c7.68 -3.42 12.9 -3.78 16.14 -3.24 c3.54 0.6 4.86 2.94 4.26 5.76 c-0.6 2.52 -3.18 3.78 -3.9 3.84 c-0.72 0.12 -1.08 -0.66 -0.36 -0.96 z M19.74 71.52 c0.48 -3 -0.6 -5.76 -5.4 -10.98 c-0.54 0.24 -0.96 0.48 -1.38 0.72 c-7.38 4.02 -10.98 7.02 -11.58 10.26 c-0.48 2.76 2.04 5.46 6.96 5.82 c6 0.36 10.8 -2.46 11.4 -5.82 z"/></g><g id="SvgjsG1968" featureKey="nameLeftFeature-0" transform="matrix(1.1125226825135075,0,0,1.1125226825135075,-0.8571058292125535,66.9663636729041)" fill="#000"><path d="M0.84746 17.729 l0.47441 -0.55932 c0.15238 -0.15254 0.30492 -0.13559 0.44051 -0.033898 c0.32203 0.27119 1.6441 1.7119 3.5254 1.7119 c2.2373 0 3.2203 -1.2203 3.2203 -2.4237 c0 -1.7288 -1.9663 -2.1864 -3.7459 -2.8305 c-2.0169 -0.76271 -3.7458 -1.678 -3.7458 -3.7119 c0 -1.6949 1.2373 -3.5593 4.2712 -3.5593 c2.0847 0 3.5932 1.2542 4 1.6102 c0.13559 0.11864 0.18644 0.27119 0.084912 0.40678 l-0.44068 0.57627 c-0.10169 0.13559 -0.23729 0.16949 -0.38983 0.067797 c-0.33898 -0.25424 -1.5592 -1.3898 -3.2371 -1.3898 c-1.8985 0 -2.9663 1 -2.9663 2.288 c0 1.4915 1.5086 2.0169 3.4917 2.7288 c1.8136 0.67797 4 1.5932 4 3.8305 c0 1.9661 -1.8303 3.6608 -4.5253 3.6608 c-2.4746 0 -4 -1.61 -4.3898 -1.9998 c-0.11864 -0.11864 -0.22034 -0.22034 -0.067797 -0.37271 z M22.915220338983048 6.441000000000001 c0.08458 0 0.15188 0.10169 0.084083 0.20339 l-5.4064 7.7458 l0 5.3729 c0 0.15254 -0.067797 0.23712 -0.20339 0.23712 l-0.67797 0 c-0.28814 0 -0.44068 -0.18644 -0.44068 -0.47441 l0 -5.1356 l-5.4068 -7.7458 c-0.050847 -0.10169 0 -0.20339 0.10186 -0.20339 l1.1864 0 c0.10169 0 0.15254 0.067797 0.20339 0.16949 l4.5763 6.4746 l4.5764 -6.4746 c0.067797 -0.10169 0.10169 -0.16949 0.20339 -0.16949 l1.2034 0 z M39.93213559322034 6.441000000000001 c0.11864 0 0.20339 0.10186 0.20339 0.23746 l0 13.085 c0 0.15254 -0.084746 0.23712 -0.22034 0.23712 l-0.88136 0 c-0.16949 0 -0.23729 -0.08458 -0.23729 -0.23712 l0 -10.61 l-6.1697 10.407 c-0.067797 0.11864 -0.13559 0.16949 -0.25424 0.16949 l-0.067797 0 c-0.10169 0 -0.18644 -0.050847 -0.25424 -0.16949 l-6.1525 -10.407 l0 10.61 c0 0.15254 -0.084746 0.23712 -0.22034 0.23712 l-0.88136 0 c-0.15254 0 -0.23729 -0.08458 -0.23729 -0.23712 l0 -13.102 c0 -0.11881 0.067797 -0.22051 0.20339 -0.22051 l0.81356 0 c0.11864 0 0.18644 0.050847 0.25424 0.15271 l6.5086 10.983 l6.5254 -10.983 c0.050847 -0.10186 0.11864 -0.15271 0.27119 -0.15271 l0.79661 0 z M47.72877966101695 6.441000000000001 c3.0846 0 4.6437 2.4407 4.6437 4.4576 c0 2.0847 -1.5593 4.4746 -4.6439 4.4746 l-3.7966 0 l0 4.3898 c0 0.15254 -0.067797 0.23712 -0.20339 0.23712 l-0.91525 0 c-0.15238 0 -0.22017 -0.08458 -0.22017 -0.23712 l0 -13.102 c0 -0.15254 0.067797 -0.22034 0.22017 -0.22034 l4.9154 0 z M47.67777966101695 14.1019 c2.1864 0 3.3559 -1.6102 3.3559 -3.2034 s-1.1695 -3.1695 -3.3559 -3.1695 l-3.7456 0 l0 6.3729 l3.7456 0 z M65.11835593220339 6.441000000000001 c0.15254 0 0.23729 0.067963 0.23729 0.22051 l0 13.119 c0 0.13559 -0.067797 0.22017 -0.20339 0.22017 l-0.6778 0 c-0.30508 0 -0.44068 -0.18644 -0.44068 -0.45763 l0 -5.5593 l-8.5593 0 l0 5.7797 c0 0.15254 -0.067797 0.23712 -0.22034 0.23712 l-0.86441 0 c-0.16966 0 -0.23746 -0.08458 -0.23746 -0.23712 l0 -13.102 c0 -0.15254 0.067797 -0.22034 0.22034 -0.22034 l0.88136 0 c0.13559 0 0.22034 0.067797 0.22034 0.22034 l0 6 l8.5593 0 l0 -6 c0 -0.15254 0.067797 -0.22034 0.20339 -0.22034 l0.88136 0 z M74.6102186440678 20.11864 c3.8305 0 6.9492 -3.0337 6.9492 -6.8981 c0 -3.8475 -3.1186 -6.8983 -6.9492 -6.8983 c-3.8475 0 -6.9661 3.0508 -6.9661 6.8983 c0 3.8644 3.1186 6.8981 6.9661 6.8981 z M74.6102186440678 18.8307 c-3.0847 0 -5.6441 -2.5085 -5.6441 -5.6102 s2.5593 -5.6102 5.6441 -5.6102 c3.0846 0 5.61 2.5085 5.61 5.6102 s-2.5254 5.6102 -5.61 5.6102 z M95.25427118644068 6.441000000000001 c0.11864 0 0.20356 0.067631 0.20356 0.18627 l0 13.186 c0 0.11881 -0.084746 0.18644 -0.20339 0.18644 l-0.35593 0 c-0.25441 0 -0.49169 -0.16933 -0.81373 -0.52525 l-8.9153 -10.525 l0 10.831 c0 0.13559 -0.084746 0.22017 -0.22034 0.22017 l-0.88136 0 c-0.15254 0 -0.22034 -0.08458 -0.22034 -0.22017 l0 -13.136 c0 -0.11864 0.067797 -0.20339 0.20339 -0.20339 l0.55932 0 c0.11864 0 0.20339 0.050847 0.32203 0.18644 l9.2034 10.932 l0 -10.932 c0 -0.11864 0.067797 -0.18644 0.18644 -0.18644 l0.9322 0 z M109.05081355932204 6.441000000000001 c0.08458 0 0.15188 0.10169 0.084083 0.20339 l-5.4064 7.7458 l0 5.3729 c0 0.15254 -0.067797 0.23712 -0.20339 0.23712 l-0.67797 0 c-0.28814 0 -0.44068 -0.18644 -0.44068 -0.47441 l0 -5.1356 l-5.4068 -7.7458 c-0.050847 -0.10169 0 -0.20339 0.10186 -0.20339 l1.1864 0 c0.10169 0 0.15254 0.067797 0.20339 0.16949 l4.5763 6.4746 l4.5764 -6.4746 c0.067797 -0.10169 0.10169 -0.16949 0.20339 -0.16949 l1.2034 0 z"/></g><g id="SvgjsG1969" featureKey="nameRightFeature-0" transform="matrix(1.1138352713618538,0,0,1.1138352713618538,134.14703909515677,66.93979948939189)" fill="#000"><path d="M8.152410169491525 6.441000000000001 l-1.6778 0 c-0.18644 0 -0.32203 0.15254 -0.32203 0.32203 l0 12.898 c0 0.18644 0.15254 0.33881 0.33898 0.33881 l1.678 0 c0.16933 0 0.32186 -0.16933 0.32186 -0.33881 l0 -12.898 c0 -0.16949 -0.16949 -0.32203 -0.33898 -0.32203 z M22.559457627118643 6.441000000000001 c0.16949 0 0.33915 0.15254 0.33915 0.32203 l0 12.915 c0 0.16949 -0.13559 0.32186 -0.32203 0.32186 l-0.55932 0 c-0.45763 0 -0.94915 -0.32203 -1.5593 -1 l-6.9322 -7.7456 l0 8.4068 c0 0.16949 -0.15254 0.32203 -0.33915 0.32203 l-1.7288 0.016784 c-0.18644 0 -0.33898 -0.15238 -0.33898 -0.33881 l0 -12.898 c0 -0.16949 0.15254 -0.32203 0.32203 -0.32203 l1 0 c0.18644 0 0.30508 0.067797 0.45763 0.25424 l7.5763 8.678 l0 -8.6102 c0 -0.16949 0.13559 -0.32203 0.32203 -0.32203 l1.7627 0 z M25.03390152542373 17.6442 l0.96576 -1.1188 c0.20339 -0.23746 0.45763 -0.23746 0.64407 -0.10186 c0.55932 0.47458 1.5593 1.3729 2.8136 1.3729 c1.2203 0 2.2712 -0.4578 2.2712 -1.5086 c0 -1.1017 -1.1356 -1.4237 -2.3051 -1.8983 c-2.4237 -1 -4.1864 -2.0339 -4.1864 -4.2373 c0 -1.7288 1.2712 -3.8136 4.339 -3.8136 c2.0847 0 3.5934 1.1866 4.0341 1.6273 c0.18644 0.18644 0.28814 0.42373 0.11864 0.62712 l-0.84746 1.1186 c-0.16966 0.22034 -0.40678 0.32203 -0.67797 0.13559 c-0.54237 -0.42373 -1.4237 -1.2034 -2.6102 -1.2034 c-1.2034 0 -1.9492 0.69492 -1.9492 1.5085 c0 0.89831 0.77966 1.339 2.0508 1.8475 c2.2203 0.93254 4.4407 1.9325 4.4407 4.3224 c0 1.9831 -1.9659 3.7964 -4.6439 3.7964 c-2.4237 0 -3.9322 -1.5422 -4.3559 -1.949 c-0.15254 -0.13559 -0.30508 -0.32203 -0.10169 -0.52542 z M45.745271186440675 6.441000000000001 c0.16949 0 0.32203 0.13592 0.32203 0.32237 l0 1.6949 c0 0.16933 -0.15254 0.32186 -0.32203 0.32186 l-3.8305 0 l0 10.881 c0 0.20339 -0.13559 0.33881 -0.32203 0.33881 l-1.2542 0 c-0.54237 0 -0.84746 -0.37288 -0.84746 -0.86441 l0 -10.356 l-3.8136 0 c-0.16949 0 -0.33898 -0.13559 -0.33898 -0.32203 l0 -1.678 c0 -0.18644 0.15254 -0.33898 0.33898 -0.33898 l10.068 0 z M50.18630847457627 6.441000000000001 l-1.6778 0 c-0.18644 0 -0.32203 0.15254 -0.32203 0.32203 l0 12.898 c0 0.18644 0.15254 0.33881 0.33898 0.33881 l1.678 0 c0.16933 0 0.32186 -0.16933 0.32186 -0.33881 l0 -12.898 c0 -0.16949 -0.16949 -0.32203 -0.33898 -0.32203 z M63.05035593220339 6.441000000000001 c0.16949 0 0.32203 0.13592 0.32203 0.32237 l0 1.6949 c0 0.16933 -0.15254 0.32186 -0.32203 0.32186 l-3.8305 0 l0 10.881 c0 0.20339 -0.13559 0.33881 -0.32203 0.33881 l-1.2542 0 c-0.54237 0 -0.84746 -0.37288 -0.84746 -0.86441 l0 -10.356 l-3.8136 0 c-0.16949 0 -0.33898 -0.13559 -0.33898 -0.32203 l0 -1.678 c0 -0.18644 0.15254 -0.33898 0.33898 -0.33898 l10.068 0 z M75.71159322033898 6.4239999999999995 l-1.7798 0 c-0.18644 0 -0.32203 0.11864 -0.32203 0.33898 l0 8.2203 c0 1.7458 -1.1186 2.7966 -2.9661 2.7966 c-1.8305 0 -2.8983 -1.0508 -2.8983 -2.7966 l0 -8.2203 c0 -0.20339 -0.13559 -0.33898 -0.32203 -0.33898 l-1.7458 0 c-0.20339 0 -0.35576 0.13559 -0.35576 0.33898 l0 8.3051 c0 2.8814 1.9661 5.0507 5.322 5.0507 c3.3729 0 5.3898 -2.1693 5.3898 -5.0507 l0 -8.3051 c0 -0.22034 -0.13559 -0.33898 -0.32203 -0.33898 z M88.38933898305085 6.441000000000001 c0.16949 0 0.32203 0.13592 0.32203 0.32237 l0 1.6949 c0 0.16933 -0.15254 0.32186 -0.32203 0.32186 l-3.8305 0 l0 10.881 c0 0.20339 -0.13559 0.33881 -0.32203 0.33881 l-1.2542 0 c-0.54237 0 -0.84746 -0.37288 -0.84746 -0.86441 l0 -10.356 l-3.8136 0 c-0.16949 0 -0.33898 -0.13559 -0.33898 -0.32203 l0 -1.678 c0 -0.18644 0.15254 -0.33898 0.33898 -0.33898 l10.068 0 z M99.33897627118645 8.78 l-6.1697 -0.00033103 l0 3.4068 l3.322 0 c0.18644 0 0.33898 0.15254 0.33898 0.33915 l0 1.6778 c0 0.20339 -0.13559 0.3222 -0.33898 0.3222 l-3.322 0 l0 3.1356 l6.1695 0 c0.18644 0 0.33881 0.15238 0.33881 0.33881 l0 1.6613 c0 0.18644 -0.15238 0.33881 -0.33881 0.33881 l-8.2542 0 c-0.18644 0 -0.33898 -0.15238 -0.33898 -0.33881 l0 -12.898 c0 -0.16949 0.13559 -0.32203 0.3222 -0.32203 l8.2712 0 c0.18644 0 0.33881 0.15254 0.33881 0.32203 l0 1.6949 c0 0.18644 -0.15238 0.32203 -0.33881 0.32203 z M114.93222203389831 17.6612 c0.18644 0 0.32203 0.13592 0.32203 0.33915 l0 1.678 c0 0.16949 -0.13559 0.32186 -0.32203 0.32186 l-8.0169 0 c-0.16949 0 -0.25424 -0.13543 -0.25424 -0.30508 l0 -12.932 c0 -0.16949 0.13559 -0.32203 0.32203 -0.32203 l1.7627 0 c0.18644 0 0.33898 0.15254 0.33898 0.32203 l0 10.898 l5.8475 0 z M119.5422406779661 6.441000000000001 l-1.6778 0 c-0.18644 0 -0.32203 0.15254 -0.32203 0.32203 l0 12.898 c0 0.18644 0.15254 0.33881 0.33898 0.33881 l1.678 0 c0.16933 0 0.32186 -0.16933 0.32186 -0.33881 l0 -12.898 c0 -0.16949 -0.16949 -0.32203 -0.33898 -0.32203 z M137.69528813559322 6.441000000000001 c0.18644 0 0.33915 0.15238 0.33915 0.32186 l0 12.898 c0 0.16949 -0.13559 0.33881 -0.3222 0.33881 l-1.7456 0 c-0.20339 0 -0.33898 -0.15238 -0.33898 -0.33881 l0 -8.2203 l-4.9492 7.8305 c-0.10186 0.16949 -0.20356 0.23729 -0.3561 0.23729 l-0.10169 0 c-0.15254 0 -0.25424 -0.067797 -0.35593 -0.23729 l-4.9322 -7.8475 l0 8.2375 c0 0.16949 -0.15254 0.33881 -0.33898 0.33881 l-1.7458 0 c-0.18644 0 -0.33898 -0.15238 -0.33898 -0.33881 l0 -12.898 c0 -0.16949 0.13559 -0.32203 0.33898 -0.32203 l1.4576 0 c0.16949 0 0.28814 0.067797 0.38983 0.22034 l5.5763 8.8134 l5.5932 -8.8134 c0.084746 -0.15254 0.20339 -0.22034 0.38983 -0.22034 l1.4407 0 z M142.6608847457627 6.441000000000001 l-1.6778 0 c-0.18644 0 -0.32203 0.15254 -0.32203 0.32203 l0 12.898 c0 0.18644 0.15254 0.33881 0.33898 0.33881 l1.678 0 c0.16933 0 0.32186 -0.16933 0.32186 -0.33881 l0 -12.898 c0 -0.16949 -0.16949 -0.32203 -0.33898 -0.32203 z M155.52493220338985 6.441000000000001 c0.16949 0 0.32203 0.13592 0.32203 0.32237 l0 1.6949 c0 0.16933 -0.15254 0.32186 -0.32203 0.32186 l-3.8305 0 l0 10.881 c0 0.20339 -0.13559 0.33881 -0.32203 0.33881 l-1.2542 0 c-0.54237 0 -0.84746 -0.37288 -0.84746 -0.86441 l0 -10.356 l-3.8136 0 c-0.16949 0 -0.33898 -0.13559 -0.33898 -0.32203 l0 -1.678 c0 -0.18644 0.15254 -0.33898 0.33898 -0.33898 l10.068 0 z M166.47456949152541 8.78 l-6.1697 -0.00033103 l0 3.4068 l3.322 0 c0.18644 0 0.33898 0.15254 0.33898 0.33915 l0 1.6778 c0 0.20339 -0.13559 0.3222 -0.33898 0.3222 l-3.322 0 l0 3.1356 l6.1695 0 c0.18644 0 0.33881 0.15238 0.33881 0.33881 l0 1.6613 c0 0.18644 -0.15238 0.33881 -0.33881 0.33881 l-8.2542 0 c-0.18644 0 -0.33898 -0.15238 -0.33898 -0.33881 l0 -12.898 c0 -0.16949 0.13559 -0.32203 0.3222 -0.32203 l8.2712 0 c0.18644 0 0.33881 0.15254 0.33881 0.32203 l0 1.6949 c0 0.18644 -0.15238 0.32203 -0.33881 0.32203 z M173.72860508474577 6.441000000000001 c4.4068 0 6.9661 3.5424 6.9661 6.7288 c0 3.6102 -2.5763 6.8303 -6.9661 6.8303 l-4.4746 0 c-0.18644 0 -0.33898 -0.15238 -0.33898 -0.33881 l0 -12.898 c0 -0.16949 0.13559 -0.32203 0.32203 -0.32203 l4.4915 0 z M173.72860508474577 17.6612 c2.7966 0 4.4746 -2.1866 4.4576 -4.5086 c0 -2.288 -1.5932 -4.3727 -4.4576 -4.3727 l-2.4068 0 l0.016949 8.8814 l2.3898 0 z"/></g>
			</g>
		</svg>
	